HIERARCHY
ROOT Hips
{
	OFFSET	0.00	0.00	0.00
	CHANNELS 6 Xposition Yposition Zposition Zrotation Xrotation Yrotation
	JOINT LeftUpLeg
	{
		OFFSET	 0.126116	-0.014019	-0.065224
		CHANNELS 3 Zrotation Xrotation Yrotation
		JOINT LeftLeg
		{
			OFFSET	 0.000000	 0.000000	 0.569914
			CHANNELS 3 Zrotation Xrotation Yrotation
			JOINT LeftFoot
			{
				OFFSET	 0.000000	 0.000000	 0.544423
				CHANNELS 3 Zrotation Xrotation Yrotation
				JOINT LeftToeBase
				{
					OFFSET	 0.000000	 0.000000	 0.207117
					CHANNELS 3 Zrotation Xrotation Yrotation
					End Site
					{
						OFFSET	 0.000000	 0.000000	 0.207117
					}
				}
			}
		}
	}
	JOINT RightUpLeg
	{
		OFFSET	-0.124023	-0.008373	-0.065224
		CHANNELS 3 Zrotation Xrotation Yrotation
		JOINT RightLeg
		{
			OFFSET	 0.000000	 0.000000	 0.570047
			CHANNELS 3 Zrotation Xrotation Yrotation
			JOINT RightFoot
			{
				OFFSET	 0.000000	 0.000000	 0.544354
				CHANNELS 3 Zrotation Xrotation Yrotation
				JOINT RightToeBase
				{
					OFFSET	 0.000000	 0.000000	 0.207540
					CHANNELS 3 Zrotation Xrotation Yrotation
					End Site
					{
						OFFSET	 0.000000	 0.000000	 0.207540
					}
				}
			}
		}
	}
	JOINT Spine
	{
		OFFSET	 0.000184	-0.007763	 0.117403
		CHANNELS 3 Zrotation Xrotation Yrotation
		JOINT Spine1
		{
			OFFSET	 0.000000	 0.000000	 0.137269
			CHANNELS 3 Zrotation Xrotation Yrotation
			JOINT Spine2
			{
				OFFSET	 0.000000	 0.000000	 0.156879
				CHANNELS 3 Zrotation Xrotation Yrotation
				JOINT LeftShoulder
				{
					OFFSET	 0.080501	-0.002496	 0.160144
					CHANNELS 3 Zrotation Xrotation Yrotation
					JOINT LeftArm
					{
						OFFSET	 0.000000	 0.000000	 0.164363
						CHANNELS 3 Zrotation Xrotation Yrotation
						JOINT LeftForeArm
						{
							OFFSET	 0.000000	 0.000000	 0.364576
							CHANNELS 3 Zrotation Xrotation Yrotation
							JOINT LeftHand
							{
								OFFSET	 0.000000	 0.000000	 0.360812
								CHANNELS 3 Zrotation Xrotation Yrotation
								JOINT LeftHandIndex1
								{
									OFFSET	 0.000000	 0.000000	 0.086006
									CHANNELS 3 Zrotation Xrotation Yrotation
									JOINT LeftHandIndex2
									{
										OFFSET	 0.000000	 0.000000	 0.047236
										CHANNELS 3 Zrotation Xrotation Yrotation
										JOINT LeftHandIndex3
										{
											OFFSET	-0.004284	-0.000551	 0.038166
											CHANNELS 3 Zrotation Xrotation Yrotation
											End Site
											{
												OFFSET	-0.004284	-0.000551	 0.038166
											}
										}
									}
								}
							}
						}
					}
				}
				JOINT Neck
				{
					OFFSET	 0.000000	 0.000000	 0.176489
					CHANNELS 3 Zrotation Xrotation Yrotation
					JOINT Head
					{
						OFFSET	 0.000000	-0.001747	 0.077940
						CHANNELS 3 Zrotation Xrotation Yrotation
						End Site
						{
							OFFSET	 0.000000	-0.001747	 0.077940
						}
					}
				}
				JOINT RightShoulder
				{
					OFFSET	-0.080363	 0.000306	 0.159706
					CHANNELS 3 Zrotation Xrotation Yrotation
					JOINT RightArm
					{
						OFFSET	 0.000000	 0.000000	 0.164196
						CHANNELS 3 Zrotation Xrotation Yrotation
						JOINT RightForeArm
						{
							OFFSET	 0.000000	 0.000000	 0.365611
							CHANNELS 3 Zrotation Xrotation Yrotation
							JOINT RightHand
							{
								OFFSET	 0.000000	 0.000000	 0.360648
								CHANNELS 3 Zrotation Xrotation Yrotation
								JOINT RightHandIndex1
								{
									OFFSET	 0.000000	 0.000000	 0.069977
									CHANNELS 3 Zrotation Xrotation Yrotation
									JOINT RightHandIndex2
									{
										OFFSET	 0.000000	 0.000000	 0.052305
										CHANNELS 3 Zrotation Xrotation Yrotation
										JOINT RightHandIndex3
										{
											OFFSET	 0.009002	-0.000782	 0.042196
											CHANNELS 3 Zrotation Xrotation Yrotation
											End Site
											{
												OFFSET	 0.009002	-0.000782	 0.042196
											}
										}
									}
								}
							}
						}
					}
				}
			}
		}
	}
}
MOTION
Frames:    6
Frame Time: 0.03333334
-0.000646	 0.019756	 1.270826	 0.002579	-0.001168	-0.189419	 4.481570	-1.482763	 177.137300	 1.486384	-10.849020	-0.631707	-8.312742	 70.217350	 2.359928	-2.385833	 28.452760	 0.000004	-4.540772	-2.379301	-176.841300	-1.457459	-12.154030	 0.696850	 8.335670	 70.754520	-2.509396	 2.384658	 28.388730	 0.000004	 4.190715	 2.769776	-0.109324	 2.181473	 3.588367	 0.862963	-6.566398	-4.378841	-1.422544	-91.776180	 78.527420	 180.000000	 55.957560	 38.576120	-60.967110	-8.211190	 0.186488	-0.479174	-29.248740	 1.699257	-4.351550	-2.635965	 4.993658	 6.788941	-5.165319	 0.784187	 3.516649	-5.225038	 0.466231	 0.424329	-0.000002	-3.783157	-0.089647	-6.387471	 4.668294	 0.260615	 89.782160	 78.203900	 179.999900	-62.435250	 41.259510	 54.385350	 8.017458	 3.484834	 7.894972	 28.612760	 0.890833	 8.955220	 6.112037	 4.509576	-0.364401	 4.968462	 1.518543	-9.347576	 5.168945	 0.703820	 2.021906
-0.000644	 0.019936	 1.268146	 0.002744	-0.001464	-0.187480	 4.734199	-2.780970	 177.212400	 1.453023	-13.477670	-0.789999	-9.135531	 71.515870	 3.232236	-2.385833	 28.452760	 0.000004	-4.793098	-3.564524	-176.909800	-1.424475	-14.547520	 0.839662	 9.098930	 71.936560	-3.316231	 2.384658	 28.388730	 0.000004	 3.521014	 2.808746	-0.115384	 2.177580	 3.452683	 0.869845	-6.556890	-4.205292	-1.408202	-91.776250	 78.527430	-179.999900	 55.830290	 38.509750	-60.871150	-8.565880	 0.190340	-0.602185	-29.279520	 1.734359	-4.350635	-2.635965	 4.993658	 6.788941	-5.165319	 0.784187	 3.516649	-5.225038	 0.466231	 0.424329	-0.000002	-3.783157	-0.089647	-6.386380	 4.750893	 0.265186	 89.782130	 78.203850	 180.000000	-62.028690	 41.045370	 54.571850	 8.155239	 3.571411	 8.166259	 28.527250	 0.827956	 8.882555	 6.112037	 4.509576	-0.364401	 4.968462	 1.518543	-9.347576	 5.168945	 0.703820	 2.021906
-0.000640	 0.020106	 1.265626	 0.002889	-0.001723	-0.185393	 4.982849	-3.814229	 177.266200	 1.420899	-15.563960	-0.918101	-9.879256	 72.540480	 4.015625	-2.385833	 28.452760	 0.000004	-5.040344	-4.530909	-176.961500	-1.392793	-16.493440	 0.958052	 9.799785	 72.892510	-4.052813	 2.384658	 28.388730	 0.000004	 2.870486	 2.845486	-0.120750	 2.170825	 3.324644	 0.875033	-6.538453	-4.042233	-1.392711	-91.776160	 78.527470	 180.000000	 55.703740	 38.447940	-60.771000	-8.905793	 0.195866	-0.721280	-29.309210	 1.768176	-4.349683	-2.635965	 4.993658	 6.788941	-5.165319	 0.784187	 3.516649	-5.225038	 0.466231	 0.424329	-0.000002	-3.783157	-0.089647	-6.375937	 4.829927	 0.269161	 89.782200	 78.203870	 179.999900	-61.651150	 40.858730	 55.156820	 8.303214	 3.428225	 7.909883	 28.466510	 0.766206	 8.817178	 6.112037	 4.509576	-0.364401	 4.968462	 1.518543	-9.347576	 5.168945	 0.703820	 2.021906
-0.000636	 0.020276	 1.263125	 0.003001	-0.001973	-0.183071	 5.236745	-4.724682	 177.309000	 1.388339	-17.397800	-1.032861	-10.611510	 73.436210	 4.783009	-2.385833	 28.452760	 0.000004	-5.292481	-5.394596	-177.004600	-1.360686	-18.228290	 1.065624	 10.495990	 73.740470	-4.781127	 2.384658	 28.388730	 0.000004	 2.199017	 2.881989	-0.125734	 2.161126	 3.197274	 0.878880	-6.510908	-3.880688	-1.375431	-91.776190	 78.527500	-180.000000	 55.572120	 38.385490	-60.662520	-9.252985	 0.202418	-0.842138	-29.339600	 1.802868	-4.348698	-2.635965	 4.993658	 6.788941	-5.165319	 0.784187	 3.516649	-5.225038	 0.466231	 0.424329	-0.000002	-3.783157	-0.089647	-6.356405	 4.909616	 0.272768	 89.782100	 78.203890	 180.000000	-61.303830	 40.543930	 55.994510	 8.360744	 3.197117	 7.494369	 28.531430	 0.586061	 8.687678	 6.112037	 4.509576	-0.364401	 4.968462	 1.518543	-9.347576	 5.168945	 0.703820	 2.021906
-0.000631	 0.020448	 1.260619	 0.003125	-0.002195	-0.180415	 5.495739	-5.553858	 177.344300	 1.355082	-19.064120	-1.139151	-11.351110	 74.245800	 5.554760	-2.385833	 28.452760	 0.000004	-5.549833	-6.188167	-177.041900	-1.327921	-19.818670	 1.166137	 11.202610	 74.513980	-5.517417	 2.384658	 28.388730	 0.000004	 1.501206	 2.918440	-0.130429	 2.148402	 3.069904	 0.881364	-6.474093	-3.719742	-1.356307	-91.776100	 78.527430	 179.999900	 55.433390	 38.321560	-60.542450	-9.611157	 0.211148	-0.967590	-29.371150	 1.838766	-4.347599	-2.635965	 4.993658	 6.788941	-5.165319	 0.784187	 3.516649	-5.225038	 0.466231	 0.424329	-0.000002	-3.783157	-0.089647	-6.327680	 4.990449	 0.276009	 89.782060	 78.203900	-180.000000	-60.847270	 40.125870	 56.794610	 8.373672	 3.072265	 7.328778	 28.643400	 0.360422	 8.532997	 6.112037	 4.509576	-0.364401	 4.968462	 1.518543	-9.347576	 5.168945	 0.703820	 2.021906
-0.000625	 0.020623	 1.258073	 0.003230	-0.002395	-0.177488	 5.762312	-6.331184	 177.374100	 1.320667	-20.622900	-1.240534	-12.116850	 74.998920	 6.350797	-2.385833	 28.452760	 0.000004	-5.814824	-6.936956	-177.074900	-1.294020	-21.316110	 1.262633	 11.936930	 75.238530	-6.279875	 2.384658	 28.388730	 0.000004	 0.767609	 2.955309	-0.134747	 2.132398	 2.940930	 0.882549	-6.427225	-3.557423	-1.335151	-91.776170	 78.527490	 180.000000	 55.285370	 38.254220	-60.407590	-9.985430	 0.222368	-1.100109	-29.404190	 1.876388	-4.346445	-2.635965	 4.993658	 6.788941	-5.165319	 0.784187	 3.516649	-5.225038	 0.466231	 0.424329	-0.000002	-3.783157	-0.089647	-6.289013	 5.073392	 0.278884	 89.782100	 78.203870	 180.000000	-60.140570	 39.589210	 57.225420	 8.319567	 3.287622	 7.937213	 28.763630	 0.120644	 8.369989	 6.112037	 4.509576	-0.364401	 4.968462	 1.518543	-9.347576	 5.168945	 0.703820	 2.021906
